<?xml version="1.0" encoding="utf-8"?>
<!-- Generator: Adobe Illustrator 25.0.0, SVG Export Plug-In . SVG Version: 6.00 Build 0)  -->
<svg version="1.1" id="Layer_1" xmlns="http://www.w3.org/2000/svg" xmlns:xlink="http://www.w3.org/1999/xlink" x="0px" y="0px"
	 viewBox="0 0 480 289" style="enable-background:new 0 0 480 289;" xml:space="preserve">
<style type="text/css">
	.st0{fill:#C50C30;}
	.st1{fill:#FEFDFD;}
</style>
<g>
	<path class="st0" d="M207.8,0C298,0,388.1,0,478.3,0c1.4,0,1.7,0.2,1.7,1.4c0,40.8,0,81.6,0,122.4c-0.6,0-1.2,0.1-1.9,0.1
		c-89.4,0-178.9,0-268.3,0c-1.9,0-2.2-0.4-2.2-1.8c0-40.2,0-80.3,0-120.4C207.6,1.1,207.4,0.6,207.8,0z"/>
	<path class="st0" d="M480,165.2c0,40.8,0,81.7,0,122.5c0,1.1-0.4,1.3-1.7,1.3c-90.2,0-180.4,0-270.6,0c-0.3-0.6-0.2-1.3-0.2-1.9
		c0-39.9,0-79.9,0-119.9c0-2.1,0-2.1,2.5-2.1c89.2,0,178.4,0,267.6,0C478.5,165.2,479.2,165.2,480,165.2z"/>
	<path class="st1" d="M480,165.2c-0.7,0-1.5-0.1-2.2-0.1c-89.2,0-178.4,0-267.6,0c-2.5,0-2.5,0-2.5,2.1c0,39.9,0,79.9,0,119.9
		c0,0.6-0.2,1.3,0.2,1.9c-17.4,0-34.7,0-52.1,0c0-0.5,0-1,0-1.5c0-40.2,0-80.4,0-120.6c0-1.4-0.4-1.8-2.2-1.8
		c-50.5,0.1-101.1,0-151.6,0c-0.6,0-1.2,0-1.9,0.1c0-13.8,0-27.6,0-41.4c0.6,0,1.2,0.1,1.9,0.1c50.5,0,101.1,0,151.6,0
		c1.8,0,2.2-0.4,2.2-1.8c-0.1-30.4,0-60.9,0-91.2c0-10.3,0-20.6,0-30.9c17.4,0,34.7,0,52.1,0c-0.3,0.6-0.2,1.1-0.2,1.6
		c0,40.2,0,80.3,0,120.4c0,1.4,0.3,1.8,2.2,1.8c89.4-0.1,178.9,0,268.3,0c0.6,0,1.2,0,1.9-0.1C480,137.6,480,151.5,480,165.2z"/>
	<path class="st0" d="M155.6,0c0,10.3,0,20.6,0,30.9c0,30.4,0,60.9,0,91.2c0,1.4-0.4,1.8-2.2,1.8c-50.5-0.1-101.1,0-151.6,0
		c-0.6,0-1.2,0-1.9-0.1C0,83,0,42.2,0,1.3C0,0.2,0.3,0,1.6,0C53,0,104.3,0,155.6,0z"/>
	<path class="st0" d="M0,165.2c0.6,0,1.2-0.1,1.9-0.1c50.5,0,101.1,0,151.6,0c1.8,0,2.2,0.4,2.2,1.8c-0.1,40.2,0,80.4,0,120.6
		c0,0.5,0,1,0,1.5c-51.3,0-102.7,0-154,0c-1.4,0-1.6-0.2-1.6-1.3C0,246.9,0,206.1,0,165.2z"/>
</g>
</svg>
