<?xml version="1.0" encoding="utf-8"?>
<!-- Generator: Adobe Illustrator 25.0.0, SVG Export Plug-In . SVG Version: 6.00 Build 0)  -->
<svg version="1.1" id="Layer_1" xmlns="http://www.w3.org/2000/svg" xmlns:xlink="http://www.w3.org/1999/xlink" x="0px" y="0px"
	 viewBox="0 0 240 256.8" style="enable-background:new 0 0 240 256.8;" xml:space="preserve">
<style type="text/css">
	.st0{fill:#3A4D55;}
	.st1{fill:#3E5159;}
	.st2{fill:#44565E;}
	.st3{fill:#3F515A;}
	.st4{fill:#EBEDEE;}
</style>
<g>
	<path class="st0" d="M235.6,228.5c0.3-0.7,0.7-1.3,1-2c-0.2,0.2,0.3-0.8,0.3-1c0.2-0.5,0.2-0.8,0.3-1.3c0-0.2,0-0.2,0-0.3v-9.1
		c0-0.5-0.2-1-0.2-1.5c-0.5-1.2-0.8-2.5-1.3-3.7c-0.2-0.5-0.3-1.2-0.5-1.8c-0.3-0.7-0.7-1.5-1-2.2c-0.3-0.7-0.7-1.2-0.8-1.8
		c-1.7-4.5-2.8-9.3-4.8-13.8c-8-17.8-12.3-35.7,2.2-52.6c0.3-0.3,0.5-1,0.8-1.5c2.3-4.3,1.2-7.1-3.5-8.8c-7-2.3-13.3-0.3-16.8,7.8
		c-6.5,14.9-11.1,30.5-14.4,46.3c-1.3,6.5,1,12.4,8.8,14.6c1.3-4.8-2-8.8-1-13.3c0.7-3.7,1.8-7.5,5.6-8.3c4.3-1,5.3,3.3,6.5,6.1
		c3.5,8.1,6.8,16.3,10,24.4c2.2,5.5,2.8,11.1,2.2,17.1c-0.7,6.8-3.8,12.1-10.6,14.4c-6.6,2.2-10.3-2.5-13.8-6.6
		c-11.4-12.9-14.9-13.1-27.4-1.8c-1,1-2,1.8-3,2.8c-10.8,10.1-16.1,9.8-26.2-1.2c-11.6-12.6-17.4-12.8-29.2-0.7
		c-11.3,11.4-17.1,11.6-28.5,0.8c-12.6-11.9-13.3-11.9-26.5-0.8c-13.1,11-30.5,10.1-42.3-2.3c-9.1-9.5-12.6-21.1-11.4-34
		c1.7-19.6,11.1-35.5,23.7-49.8c10-11.1,19.7-22.1,28.9-33.8c2.8-3.5,4.8-11.8,9-9.5c4.5,2.5,1,10,0,15.3c-0.2,0.5-0.5,1-0.7,1.5
		c-9.1,24.6-1.2,53.8,19.4,70c21.1,16.9,45,20.1,70.8,15.8c10.8-1.8,22.2-5.6,31.9,5.5c2.2-7.8-0.8-12.3-6-15.6
		c-5.5-3.5-11.4-3.2-17.6-2c-6,1.2-11.8,3-17.8,3.3c-10.6,0.7-17.8-6.8-16.8-16.6c0.2-2,1.8-4.5-1.3-5.3c-2.5-0.7-4.3,1-5.3,3.2
		c-1,2.2-1.5,4.6-2,7c-1.8,8.1-4.5,9.8-12.1,7.1c-13.4-4.5-24.2-12.6-32-24.7c-10.3-16.3-10.3-33.2-4.3-50.8
		c3.5-10.5,7.8-20.6,8.1-31.9c0.3-11.8-2.2-22.4-11.9-30.2c-3.5-2.8-7.1-4-11.1-0.5c-6.3,5.6-12.9,11.1-19.2,16.9
		c-4,3.7-4.1,7.5,0.3,11.1c4,3.2,7.5,7.6,13.6,3.7c2-1.3,4.8-1.2,6.8,1.2c2,2.3,1.2,4.6,0,7c-1.3,2.3-2.8,4.6-4.5,6.8
		c-12.6,16.4-25.2,32.7-37.8,48.9c-9.8,12.6-16.6,26.5-18.6,42.6c0,0.5,0,1-0.2,1.5c0,1-0.2,2.2-0.3,3.3c0,0.5-0.2,0.8-0.2,1.3
		c0,0.2,0,0.2,0,0.2c0,0.8,0,1.7,0,2.5c0,0.8,0,1.7,0.2,2.7c0,0.3,0,0.7,0.2,1.2c0,0.2,0,0.5,0,0.7l0,0c0,0.3,0.2,0.7,0.2,1
		c1.5,2.5,0.7,5.6,1.3,8.3c4.6,21.7,23.6,36.8,43.6,34.7c8.3-0.8,15.1-5,21.4-10c6.1-4.8,10.8-5.6,16.3,1.8
		c9,11.8,28.2,11.1,37.7-0.3c7.1-8.5,10-9,17.8-1c5,5.1,11.3,8.3,16.9,12.4h5c8.1-3.2,15.3-7.1,20.1-14.9c3-4.6,8-4.3,12.1-0.8
		c1.7,1.3,3.2,3,4.6,4.5c12.3,12.4,24.7,10.8,33.8-4.5c0.5-0.8,0.7-1.7,1.2-2.5C235.1,230,235.3,229.3,235.6,228.5z M71.5,68.2
		c0.8-1,2.5-0.5,3.8,0.2c3.5,2.2,5.6,5,5.5,10.3c-0.3,1.2-0.7,3.3-1.2,5.3c-0.5,1.5-1.2,3.5-3.2,3c-1.2-0.3-2.3-1.3-2.8-2.5
		c-1-2.2-1.5-4.6-2.2-7C70.5,74.3,69.2,71,71.5,68.2z"/>
	<path class="st1" d="M207.2,62c-2.2-5.6-8-3.8-12.3-4c-14.8-0.3-29.7-0.5-44.5-0.8c-9.5-0.2-12.3-2.5-13.4-11.8
		c-0.7-5.1-0.7-10.5-0.3-15.6c0.7-8.3-1-15.3-8.3-19.6c-0.5,0-1-0.2-1.7-0.2c-1.2,0-2.2,0.2-3.3,0.3c-0.3,0-0.7,0.2-1,0.2
		c-0.2,0-0.3,0.2-0.5,0.2c-0.3,0.2-0.7,0.3-1,0.5s-0.7,0.2-1,0.3c-1.5,0.8-3.3,1-5,1.5c-9.8,2.8-19.6,5.5-29.4,8.1
		c-2.5,0.7-4.8,1.8-4.1,5c0.5,2.7,2.5,4.3,5.3,4.3c1.8,0,3.8-0.3,5.6-0.7c6.5-1,12.9-2.3,19.6-3c7.8-0.8,14.1,2.7,18.3,9
		c3.5,5.5,2.5,11.4-1.2,16.3c-4.5,6-11,8.1-18.4,6.6c-2.5-0.5-4.8-1-7.3-1.3c-3.7-0.5-7.3,0.8-7.5,4.6c-0.3,4.8,4.1,3.3,6.8,3.3
		c28.5,0.5,57.2,0.7,85.8,1.2c3,0,6.6-1,8.1,2.5c1.2,2.8-1.8,4.8-3.3,7.1c-17.6,26.4-21.6,54.8-11.9,85c0.8,2.5,0.8,6,5.3,6.8
		c0.7-8.3-3.8-15.1-5-22.7c-3.8-26.9,2.5-50.6,20.7-71.2C205.1,70.8,209.1,67,207.2,62z"/>
	<path class="st2" d="M152,167.7c5.1,2,10.8,4,16.4,6.1c1.5,0.7,3,1.8,2.3,3.8c-0.7,2-2.3,3.2-4.5,2.3c-5.6-2-11.3-4-16.9-6.1
		c-1.8-0.7-3.5-2.3-2.7-4.5C147.3,166.9,149.7,167.9,152,167.7z"/>
	<path class="st3" d="M110.2,174.7c-4.1,0.5-6.6-0.8-7.1-4c-0.3-2.7,2.3-3.2,4.3-3.8c0.3-0.2,0.5-0.2,0.8-0.2
		c4.1-0.2,8.6-2.5,12.4,0.8c0.8,0.7,1.3,2,0.3,2.8C118,173.7,113.2,173.2,110.2,174.7z"/>
	<path class="st4" d="M80.6,78.6c-0.3,1.2-0.7,3.3-1.2,5.3c-0.5,1.5-1.2,3.5-3.2,3c-1.2-0.3-2.3-1.3-2.8-2.5c-1-2.2-1.5-4.6-2.2-7
		c-0.8-3.2-2.2-6.5,0.2-9.3c0.8-1,2.5-0.5,3.8,0.2C78.7,70.5,80.8,73.3,80.6,78.6z"/>
</g>
</svg>
