<?xml version="1.0" encoding="utf-8"?>
<!-- Generator: Adobe Illustrator 25.0.0, SVG Export Plug-In . SVG Version: 6.00 Build 0)  -->
<svg version="1.1" id="Layer_1" xmlns="http://www.w3.org/2000/svg" xmlns:xlink="http://www.w3.org/1999/xlink" x="0px" y="0px"
	 viewBox="0 0 37.5 480" style="enable-background:new 0 0 37.5 480;" xml:space="preserve">
<style type="text/css">
	.st0{fill:#FFFFFF;stroke:#000000;stroke-width:2;stroke-miterlimit:10;}
	.st1{fill:none;stroke:#000000;stroke-width:2;stroke-miterlimit:10;}
</style>
<g>
	<g>
		<polyline class="st0" points="9.6,6.3 9.6,37.7 9.6,51.5 		"/>
		<polygon class="st1" points="9.6,39.7 28,28.9 9.6,17.3 		"/>
	</g>
	<g>
		<polyline class="st1" points="8.3,90.7 14.5,59.8 29.3,71.4 		"/>
		<line class="st1" x1="12.4" y1="70.2" x2="24.1" y2="80.2"/>
	</g>
	<g>
		<line class="st1" x1="18.2" y1="96.2" x2="17.7" y2="134.8"/>
		<line class="st1" x1="7.7" y1="104" x2="29.9" y2="127.6"/>
	</g>
	<g>
		<polyline class="st1" points="29.9,143.6 7.7,159.6 29.9,171.8 7.7,193.5 		"/>
	</g>
	<g>
		<polyline class="st1" points="29.7,199.5 7.5,216.1 30,235.4 		"/>
	</g>
	<g>
		<polyline class="st1" points="7.5,318.8 7.5,281.2 29.7,297.8 		"/>
		<polyline class="st1" points="30,318.8 29.7,281.2 7.5,297.4 		"/>
	</g>
	<g>
		<polyline class="st1" points="30,329.5 7.5,346.3 21,361.6 		"/>
		<path class="st1" d="M24.7,345.5"/>
		<polyline class="st1" points="18.6,348.6 30,360.2 7.5,379.6 		"/>
	</g>
	<g>
		<polyline class="st1" points="6.9,424.4 6.9,390.9 30.7,406 30.7,424.4 		"/>
	</g>
	<g>
		<polyline class="st0" points="9.6,432.4 9.6,463.9 9.6,477.7 		"/>
		<polygon class="st1" points="9.6,465.9 28,455.1 9.6,443.5 		"/>
	</g>
</g>
</svg>
