<?xml version="1.0" encoding="utf-8"?>
<!-- Generator: Adobe Illustrator 25.0.0, SVG Export Plug-In . SVG Version: 6.00 Build 0)  -->
<svg version="1.1" id="Layer_1" xmlns="http://www.w3.org/2000/svg" xmlns:xlink="http://www.w3.org/1999/xlink" x="0px" y="0px"
	 viewBox="0 0 242.8 60.3" style="enable-background:new 0 0 242.8 60.3;" xml:space="preserve">
<style type="text/css">
	.st0{opacity:0.5;}
	.st1{fill:#3A4D55;}
	.st2{fill:#3E5159;}
	.st3{fill:#44565E;}
	.st4{fill:#3F515A;}
	.st5{fill:#EBEDEE;}
	.st6{font-family:'Norse';}
	.st7{font-size:25.0118px;}
</style>
<g class="st0">
	<path class="st1" d="M241.3,54.8c0.1-0.2,0.2-0.3,0.2-0.5c0,0,0.1-0.2,0.1-0.2c0-0.1,0-0.2,0.1-0.3c0,0,0,0,0-0.1v-2.3
		c0-0.1,0-0.2,0-0.4c-0.1-0.3-0.2-0.6-0.3-0.9c0-0.1-0.1-0.3-0.1-0.4c-0.1-0.2-0.2-0.4-0.2-0.5c-0.1-0.2-0.2-0.3-0.2-0.4
		c-0.4-1.1-0.7-2.3-1.2-3.4c-2-4.4-3.1-8.9,0.5-13.1c0.1-0.1,0.1-0.2,0.2-0.4c0.6-1.1,0.3-1.8-0.9-2.2c-1.7-0.6-3.3-0.1-4.2,1.9
		c-1.6,3.7-2.8,7.6-3.6,11.5c-0.3,1.6,0.2,3.1,2.2,3.6c0.3-1.2-0.5-2.2-0.2-3.3c0.2-0.9,0.4-1.9,1.4-2.1c1.1-0.2,1.3,0.8,1.6,1.5
		c0.9,2,1.7,4.1,2.5,6.1c0.5,1.4,0.7,2.8,0.5,4.3c-0.2,1.7-0.9,3-2.6,3.6c-1.6,0.5-2.6-0.6-3.4-1.6c-2.8-3.2-3.7-3.3-6.8-0.4
		c-0.2,0.2-0.5,0.4-0.7,0.7c-2.7,2.5-4,2.4-6.5-0.3c-2.9-3.1-4.3-3.2-7.3-0.2c-2.8,2.8-4.3,2.9-7.1,0.2c-3.1-3-3.3-3-6.6-0.2
		c-3.3,2.7-7.6,2.5-10.5-0.6c-2.3-2.4-3.1-5.3-2.8-8.5c0.4-4.9,2.8-8.8,5.9-12.4c2.5-2.8,4.9-5.5,7.2-8.4c0.7-0.9,1.2-2.9,2.2-2.4
		c1.1,0.6,0.2,2.5,0,3.8c0,0.1-0.1,0.2-0.2,0.4c-2.3,6.1-0.3,13.4,4.8,17.4c5.3,4.2,11.2,5,17.6,3.9c2.7-0.4,5.5-1.4,7.9,1.4
		c0.5-1.9-0.2-3.1-1.5-3.9c-1.4-0.9-2.8-0.8-4.4-0.5c-1.5,0.3-2.9,0.7-4.4,0.8c-2.6,0.2-4.4-1.7-4.2-4.1c0-0.5,0.4-1.1-0.3-1.3
		c-0.6-0.2-1.1,0.2-1.3,0.8c-0.2,0.5-0.4,1.1-0.5,1.7c-0.4,2-1.1,2.4-3,1.8c-3.3-1.1-6-3.1-8-6.2c-2.6-4.1-2.6-8.3-1.1-12.7
		c0.9-2.6,1.9-5.1,2-7.9c0.1-2.9-0.5-5.6-3-7.5c-0.9-0.7-1.8-1-2.8-0.1c-1.6,1.4-3.2,2.8-4.8,4.2c-1,0.9-1,1.9,0.1,2.8
		c1,0.8,1.9,1.9,3.4,0.9c0.5-0.3,1.2-0.3,1.7,0.3c0.5,0.6,0.3,1.1,0,1.7c-0.3,0.6-0.7,1.1-1.1,1.7c-3.1,4.1-6.3,8.1-9.4,12.2
		c-2.4,3.1-4.1,6.6-4.6,10.6c0,0.1,0,0.2,0,0.4c0,0.2,0,0.5-0.1,0.8c0,0.1,0,0.2,0,0.3c0,0,0,0,0,0c0,0.2,0,0.4,0,0.6s0,0.4,0,0.7
		c0,0.1,0,0.2,0,0.3c0,0,0,0.1,0,0.2l0,0c0,0.1,0,0.2,0,0.2c0.4,0.6,0.2,1.4,0.3,2.1c1.1,5.4,5.9,9.2,10.9,8.6
		c2.1-0.2,3.8-1.2,5.3-2.5c1.5-1.2,2.7-1.4,4.1,0.4c2.2,2.9,7,2.8,9.4-0.1c1.8-2.1,2.5-2.2,4.4-0.2c1.2,1.3,2.8,2.1,4.2,3.1h1.2
		c2-0.8,3.8-1.8,5-3.7c0.7-1.1,2-1.1,3-0.2c0.4,0.3,0.8,0.7,1.1,1.1c3.1,3.1,6.2,2.7,8.4-1.1c0.1-0.2,0.2-0.4,0.3-0.6
		C241.2,55.2,241.2,55,241.3,54.8z M200.4,14.9c0.2-0.2,0.6-0.1,0.9,0c0.9,0.5,1.4,1.2,1.4,2.6c-0.1,0.3-0.2,0.8-0.3,1.3
		c-0.1,0.4-0.3,0.9-0.8,0.7c-0.3-0.1-0.6-0.3-0.7-0.6c-0.2-0.5-0.4-1.1-0.5-1.7C200.2,16.4,199.8,15.6,200.4,14.9z"/>
	<path class="st2" d="M234.2,13.4c-0.5-1.4-2-0.9-3.1-1c-3.7-0.1-7.4-0.1-11.1-0.2c-2.4,0-3.1-0.6-3.3-2.9c-0.2-1.3-0.2-2.6-0.1-3.9
		c0.2-2.1-0.2-3.8-2.1-4.9c-0.1,0-0.2,0-0.4,0c-0.3,0-0.5,0-0.8,0.1c-0.1,0-0.2,0-0.2,0c0,0-0.1,0-0.1,0c-0.1,0-0.2,0.1-0.2,0.1
		s-0.2,0-0.2,0.1c-0.4,0.2-0.8,0.2-1.2,0.4c-2.4,0.7-4.9,1.4-7.3,2c-0.6,0.2-1.2,0.4-1,1.2c0.1,0.7,0.6,1.1,1.3,1.1
		c0.4,0,0.9-0.1,1.4-0.2c1.6-0.2,3.2-0.6,4.9-0.7c1.9-0.2,3.5,0.7,4.6,2.2c0.9,1.4,0.6,2.8-0.3,4.1c-1.1,1.5-2.7,2-4.6,1.6
		c-0.6-0.1-1.2-0.2-1.8-0.3c-0.9-0.1-1.8,0.2-1.9,1.1c-0.1,1.2,1,0.8,1.7,0.8c7.1,0.1,14.2,0.2,21.4,0.3c0.7,0,1.6-0.2,2,0.6
		c0.3,0.7-0.4,1.2-0.8,1.8c-4.4,6.6-5.4,13.6-3,21.2c0.2,0.6,0.2,1.5,1.3,1.7c0.2-2.1-0.9-3.8-1.2-5.7c-0.9-6.7,0.6-12.6,5.2-17.7
		C233.7,15.6,234.7,14.6,234.2,13.4z"/>
	<path class="st3" d="M220.5,39.7c1.3,0.5,2.7,1,4.1,1.5c0.4,0.2,0.7,0.4,0.6,0.9c-0.2,0.5-0.6,0.8-1.1,0.6c-1.4-0.5-2.8-1-4.2-1.5
		c-0.4-0.2-0.9-0.6-0.7-1.1C219.3,39.5,219.9,39.7,220.5,39.7z"/>
	<path class="st4" d="M210,41.4c-1,0.1-1.6-0.2-1.8-1c-0.1-0.7,0.6-0.8,1.1-0.9c0.1,0,0.1,0,0.2,0c1,0,2.1-0.6,3.1,0.2
		c0.2,0.2,0.3,0.5,0.1,0.7C212,41.2,210.8,41.1,210,41.4z"/>
	<path class="st5" d="M202.7,17.5c-0.1,0.3-0.2,0.8-0.3,1.3c-0.1,0.4-0.3,0.9-0.8,0.7c-0.3-0.1-0.6-0.3-0.7-0.6
		c-0.2-0.5-0.4-1.1-0.5-1.7c-0.2-0.8-0.5-1.6,0-2.3c0.2-0.2,0.6-0.1,0.9,0C202.2,15.5,202.7,16.2,202.7,17.5z"/>
</g>
<text transform="matrix(1 0 0 1 -0.1377 45.2337)" class="st6 st7">VELKOMMEN TIL DANSK MJØD</text>
</svg>
