<?xml version="1.0" encoding="utf-8"?>
<!-- Generator: Adobe Illustrator 25.0.0, SVG Export Plug-In . SVG Version: 6.00 Build 0)  -->
<svg version="1.1" id="Layer_1" xmlns="http://www.w3.org/2000/svg" xmlns:xlink="http://www.w3.org/1999/xlink" x="0px" y="0px"
	 viewBox="0 0 478.4 239.5" style="enable-background:new 0 0 478.4 239.5;" xml:space="preserve">
<style type="text/css">
	.st0{fill:#C7102E;}
	.st1{fill:#FEFDFE;}
	.st2{fill:#022169;}
</style>
<g>
	<path class="st0" d="M0.2,143.8c0-16,0-31.9,0-47.9c71.2,0,142.4,0,213.7,0c1.3,0,1.7-0.3,1.7-1.7c0-31.4,0-62.7,0-94.1
		c15.9,0,31.9,0,47.8,0c0,31.3,0,62.6,0,93.9c0,1.5,0.4,1.8,1.9,1.8c71.2,0,142.3,0,213.5,0c0,16,0,31.9,0,47.9
		c-71.2,0-142.4,0-213.7,0c-1.3,0-1.7,0.3-1.7,1.7c0,31.4,0,62.7,0,94.1c-15.9,0-31.9,0-47.8,0c0-31.3,0-62.6,0-93.9
		c0-1.5-0.4-1.8-1.9-1.8C142.5,143.8,71.4,143.8,0.2,143.8z"/>
	<path class="st1" d="M215.5,0.1c0,31.4,0,62.7,0,94.1c0,1.4-0.4,1.7-1.7,1.7c-71.2,0-142.4,0-213.7,0c0-5.3,0-10.6,0-15.9
		c0.6,0,1.2-0.1,1.8-0.1c34,0,68.1,0,102.1,0c0.5,0,1,0,1.7,0c-0.4-0.6-0.9-0.7-1.3-0.9C70.1,61.9,35.8,44.7,1.6,27.6
		c-0.4-0.2-0.8-0.6-1.4-0.5c0-3,0-6,0-9c0.6,0.3,1.2,0.5,1.8,0.8C42.2,39,82.5,59.1,122.7,79.3c1,0.5,1.9,0.7,3,0.7
		c10.8,0,21.5,0,32.3,0c0.4,0,0.8,0,1.2,0c-0.5-0.5-1-0.8-1.5-1.1C105.8,52.9,53.9,27,2,1C1.5,0.8,1,0.6,0.6,0.2
		c17.8,0,35.7,0,53.5,0c0.3,0.5,0.8,0.6,1.2,0.8c47.6,23.8,95.2,47.6,142.8,71.4c1.6,0.8,1.6,0.8,1.6-1c0-23.1,0-46.3,0-69.4
		c0-0.6,0-1.2,0.1-1.8C204.9,0.1,210.2,0.1,215.5,0.1z"/>
	<path class="st1" d="M263.4,239.5c0-31.4,0-62.7,0-94.1c0-1.4,0.4-1.7,1.7-1.7c71.2,0,142.4,0,213.7,0c0,5.3,0,10.6,0,15.9
		c-0.6,0-1.2,0.1-1.8,0.1c-34,0-68.1,0-102.1,0c-0.5,0-1,0-1.5,0c0.4,0.5,0.8,0.7,1.3,0.9c34.3,17.2,68.6,34.3,102.9,51.5
		c0.4,0.2,0.7,0.5,1.2,0.5c0,3,0,6,0,9c-0.5-0.2-1.1-0.4-1.6-0.7c-40.3-20.1-80.5-40.3-120.8-60.4c-1-0.5-2-0.8-3.1-0.8
		c-10.6,0-21.1,0-31.7,0c-0.6,0-1.1,0-1.8,0c0.4,0.6,1,0.7,1.5,1c51.9,26,103.8,52,155.8,77.9c0.5,0.3,1.1,0.4,1.5,0.9
		c-17.8,0-35.7,0-53.5,0c-0.2-0.5-0.8-0.6-1.2-0.8c-47.6-23.8-95.2-47.6-142.8-71.4c-1.6-0.8-1.6-0.8-1.6,1c0,23.1,0,46.3,0,69.4
		c0,0.6,0,1.2-0.1,1.8C273.9,239.5,268.6,239.5,263.4,239.5z"/>
	<path class="st1" d="M478.7,95.9c-71.2,0-142.3,0-213.5,0c-1.5,0-1.9-0.3-1.9-1.8c0.1-31.3,0-62.6,0-93.9c5.3,0,10.6,0,15.8,0
		c0,0.6,0.1,1.2,0.1,1.8c0,23,0,46.1,0,69.1c0,2.1,0,2.1,2,1.2C328.6,48.6,376,24.9,423.5,1.1c0.5-0.2,1-0.3,1.3-0.8
		c6,0,12,0,17.9,0c-0.5,0.3-1,0.6-1.5,0.9c-51.9,26-103.8,51.9-155.8,77.9c-0.5,0.2-1.1,0.4-1.5,1c11.2,0,22.3,0,33.5,0
		c1.1,0,2.1-0.2,3.1-0.7C372.7,53.3,424.8,27.2,477,1.1c0.4-0.2,1-0.3,1.2-0.8c0.6,0.3,0.3,0.8,0.3,1.2c0,8.6,0,17.2,0,25.7
		c-0.4-0.1-0.7,0.2-1,0.3C443,44.8,408.4,62,373.9,79.3c-0.3,0.2-0.8,0.2-0.9,0.7c0.6,0,1.1,0,1.6,0c34,0,68,0,102,0
		c0.6,0,1.2,0,1.8,0.1C478.7,85.3,478.7,90.6,478.7,95.9z"/>
	<path class="st1" d="M0.2,143.8c71.2,0,142.3,0,213.5,0c1.5,0,1.9,0.3,1.9,1.8c-0.1,31.3,0,62.6,0,93.9c-5.3,0-10.6,0-15.8,0
		c0-0.6-0.1-1.2-0.1-1.8c0-23.1,0-46.3,0-69.4c0-1.8,0-1.8-1.6-1c-47.2,23.6-94.5,47.2-141.7,70.9c-0.8,0.4-1.7,0.6-2.3,1.3
		c-6,0-12,0-17.9,0c0.6-0.3,1.1-0.6,1.7-0.9c51.8-25.9,103.6-51.8,155.4-77.8c0.5-0.3,1.2-0.4,1.7-1.1c-0.7,0-1.1,0-1.6,0
		c-10.6,0-21.1,0-31.7,0c-1.3,0-2.4,0.3-3.6,0.9c-52.2,26-104.3,52.1-156.4,78.1c-0.4,0.2-1,0.3-1.2,0.8c-0.6-0.3-0.3-0.8-0.3-1.2
		c0-8.6,0-17.2,0-25.7c0.4,0.1,0.8-0.2,1.1-0.4c34.5-17.2,68.9-34.5,103.4-51.7c0.3-0.2,0.9-0.2,0.9-0.8c-34.5,0-69,0-103.5,0
		c-0.6,0-1.3,0-1.9-0.1C0.2,154.3,0.2,149,0.2,143.8z"/>
	<path class="st2" d="M199.7,0.1c0,0.6-0.1,1.2-0.1,1.8c0,23.1,0,46.3,0,69.4c0,1.8,0,1.8-1.6,1C150.4,48.5,102.8,24.7,55.2,0.9
		c-0.4-0.2-1-0.3-1.2-0.8C102.6,0.1,151.1,0.1,199.7,0.1z"/>
	<path class="st2" d="M424.9,0.1c-0.3,0.5-0.9,0.6-1.3,0.8c-47.4,23.7-94.8,47.5-142.3,71.2c-2,1-2,1-2-1.2c0-23,0-46.1,0-69.1
		c0-0.6,0-1.2-0.1-1.8C327.8,0.1,376.3,0.1,424.9,0.1z"/>
	<path class="st2" d="M54,239.5c0.6-0.7,1.5-0.9,2.3-1.3c47.2-23.6,94.5-47.3,141.7-70.9c1.6-0.8,1.6-0.8,1.6,1
		c0,23.1,0,46.3,0,69.4c0,0.6,0,1.2,0.1,1.8C151.1,239.5,102.6,239.5,54,239.5z"/>
	<path class="st2" d="M279.2,239.5c0-0.6,0.1-1.2,0.1-1.8c0-23.1,0-46.3,0-69.4c0-1.8,0-1.8,1.6-1c47.6,23.8,95.2,47.6,142.8,71.4
		c0.4,0.2,1,0.3,1.2,0.8C376.3,239.5,327.8,239.5,279.2,239.5z"/>
	<path class="st0" d="M478.4,0.1c-0.3,0.5-0.8,0.6-1.2,0.8C425,27,372.8,53.1,320.7,79.2c-1,0.5-2,0.8-3.1,0.7
		c-11.1,0-22.2,0-33.5,0c0.4-0.7,1-0.8,1.5-1C337.5,52.9,389.4,27,441.4,1c0.5-0.3,1-0.6,1.5-0.9C454.7,0.1,466.5,0.1,478.4,0.1z"/>
	<path class="st0" d="M0.5,239.5c0.3-0.5,0.8-0.5,1.2-0.8c52.1-26,104.2-52.1,156.3-78.2c1.1-0.6,2.3-0.9,3.6-0.9
		c10.6,0,21.1,0,31.7,0c0.5,0,1,0,1.6,0c-0.5,0.7-1.2,0.8-1.7,1.1c-51.8,26-103.6,51.9-155.4,77.9c-0.6,0.3-1.1,0.6-1.7,0.9
		C24.2,239.5,12.4,239.5,0.5,239.5z"/>
	<path class="st2" d="M0.2,27.1c0.5-0.1,0.9,0.3,1.4,0.5C35.9,44.7,70.2,61.9,104.4,79c0.4,0.2,0.9,0.3,1.3,0.9c-0.6,0-1.1,0-1.7,0
		c-34,0-68.1,0-102.1,0c-0.6,0-1.2,0-1.8,0.1C0.2,62.4,0.2,44.7,0.2,27.1z"/>
	<path class="st2" d="M478.7,80c-0.6,0-1.2-0.1-1.8-0.1c-34,0-68,0-102,0c-0.5,0-1.1,0-1.6,0c0-0.6,0.5-0.6,0.9-0.7
		c34.5-17.3,69-34.6,103.6-51.8c0.3-0.1,0.6-0.4,1-0.3C478.7,44.7,478.7,62.4,478.7,80z"/>
	<path class="st2" d="M0.2,159.6c0.6,0,1.3,0.1,1.9,0.1c34.5,0,69,0,103.5,0c0,0.6-0.6,0.6-0.9,0.8C70.2,177.7,35.8,195,1.3,212.2
		c-0.3,0.2-0.7,0.5-1.1,0.4C0.2,194.9,0.2,177.3,0.2,159.6z"/>
	<path class="st2" d="M478.7,212.6c-0.5,0.1-0.8-0.3-1.2-0.5c-34.3-17.2-68.6-34.3-102.9-51.5c-0.4-0.2-0.9-0.5-1.3-0.9
		c0.5,0,1,0,1.5,0c34,0,68.1,0,102.1,0c0.6,0,1.2,0,1.8-0.1C478.7,177.3,478.7,194.9,478.7,212.6z"/>
	<path class="st0" d="M0.5,0.1c0.3,0.5,0.9,0.6,1.4,0.8c51.9,26,103.8,51.9,155.7,77.9c0.5,0.3,1,0.6,1.5,1.1c-0.4,0-0.8,0-1.2,0
		c-10.8,0-21.5,0-32.3,0c-1.1,0-2-0.3-3-0.7C82.4,59.1,42.1,38.9,1.9,18.8c-0.6-0.3-1.2-0.5-1.8-0.8c0-5.6,0-11.3,0-16.9
		C0.2,0.9-0.3,0.3,0.5,0.1z"/>
	<path class="st0" d="M478.4,239.5c-0.4-0.5-1-0.6-1.5-0.9c-51.9-26-103.8-52-155.8-77.9c-0.5-0.2-1-0.3-1.5-1c0.7,0,1.2,0,1.8,0
		c10.6,0,21.1,0,31.7,0c1.1,0,2.1,0.2,3.1,0.8c40.2,20.2,80.5,40.3,120.8,60.4c0.5,0.3,1.1,0.5,1.6,0.7c0,5.6,0,11.3,0,16.9
		C478.6,238.8,479.1,239.3,478.4,239.5z"/>
</g>
</svg>
